<svg width="32" height="32" viewBox="0 0 32 32" fill="none" xmlns="http://www.w3.org/2000/svg">
  <defs>
    <linearGradient id="gearGradient" x1="0%" y1="0%" x2="100%" y2="100%">
      <stop offset="0%" style="stop-color:#3B82F6;stop-opacity:1" />
      <stop offset="100%" style="stop-color:#1E40AF;stop-opacity:1" />
    </linearGradient>
  </defs>
  <!-- Gear outer ring -->
  <path d="M16 2L18.5 4.5L21.5 3L23 6L26.5 6.5L27 10L30 12L28.5 15.5L30 19L27 21L26.5 24.5L23 25L21.5 28L18.5 26.5L16 29L13.5 26.5L10.5 28L9 25L5.5 24.5L5 21L2 19L3.5 15.5L2 12L5 10L5.5 6.5L9 6L10.5 3L13.5 4.5L16 2Z" fill="url(#gearGradient)" stroke="#1E3A8A" stroke-width="0.5"/>
  <!-- Inner circle -->
  <circle cx="16" cy="16" r="6" fill="#F8FAFC" stroke="#1E40AF" stroke-width="1"/>
  <!-- Center circle -->
  <circle cx="16" cy="16" r="3" fill="url(#gearGradient)"/>
  <!-- Small center hole -->
  <circle cx="16" cy="16" r="1.5" fill="#F8FAFC"/>
</svg>